<svg width="360" height="360" viewBox="0 0 360 360" fill="none" xmlns="http://www.w3.org/2000/svg">
<path d="M153.055 9.57515C153.055 14.8864 148.755 19.1877 143.475 19.1877C138.195 19.1877 133.895 14.8864 133.895 9.57515C133.895 4.26393 138.195 0 143.475 0C148.755 0 153.055 4.26393 153.055 9.57515Z" fill="#FF9900"/>
<path d="M65.5149 75.2171C65.5149 80.1543 61.5169 84.1564 56.576 84.1564C51.6352 84.1564 47.6372 80.1543 47.6372 75.2171C47.6372 70.2799 51.6352 66.2778 56.576 66.2778C61.5169 66.2778 65.5149 70.3174 65.5149 75.2171Z" fill="#FF9900"/>
<path d="M90.4078 62.1637C90.4078 67.1008 86.4099 71.103 81.469 71.103C76.5281 71.103 72.5302 67.1008 72.5302 62.1637C72.5302 57.2265 76.5281 53.2244 81.469 53.2244C86.4099 53.2244 90.4078 57.2265 90.4078 62.1637Z" fill="#FF9900"/>
<path d="M115.338 49.0727C115.338 54.0099 111.341 58.0494 106.4 58.0494C101.459 58.0494 97.4608 54.0473 97.4608 49.0727C97.4608 44.0981 101.459 40.1334 106.4 40.1334C111.341 40.1334 115.338 44.1355 115.338 49.0727Z" fill="#FF9900"/>
<path d="M142.381 37.2906C142.381 41.8912 138.685 45.5941 134.084 45.5941C129.482 45.5941 125.786 41.8912 125.786 37.2906C125.786 32.6901 129.482 28.9872 134.084 28.9872C138.685 28.9872 142.381 32.7275 142.381 37.2906Z" fill="#FF9900"/>
<path d="M134.348 60.8171C134.348 64.7071 131.217 67.8489 127.332 67.8489C123.447 67.8489 120.317 64.7071 120.317 60.8171C120.317 56.9272 123.447 53.7854 127.332 53.7854C131.217 53.7854 134.348 56.9272 134.348 60.8171Z" fill="#FF9900"/>
<path d="M127.823 83.2215C127.823 86.4007 125.258 88.9815 122.09 88.9815C118.922 88.9815 116.357 86.4381 116.357 83.2215C116.357 80.0048 118.922 77.4614 122.09 77.4614C125.258 77.4614 127.823 80.0422 127.823 83.2215Z" fill="#FF9900"/>
<path d="M124.202 100.801C124.202 103.269 122.203 105.252 119.714 105.252C117.224 105.252 115.263 103.269 115.263 100.801C115.263 98.3323 117.262 96.3125 119.714 96.3125C122.165 96.3125 124.202 98.3323 124.202 100.801Z" fill="#FF9900"/>
<path d="M121.449 117.108C121.449 118.866 120.015 120.325 118.243 120.325C116.47 120.325 115.037 118.904 115.037 117.108C115.037 115.313 116.47 113.892 118.243 113.892C120.015 113.892 121.449 115.313 121.449 117.108Z" fill="#FF9900"/>
<path d="M65.5147 100.689C65.5147 105.289 61.8185 108.992 57.2171 108.992C52.6157 108.992 48.9194 105.252 48.9194 100.689C48.9194 96.1254 52.6157 92.3851 57.2171 92.3851C61.8185 92.3851 65.5147 96.088 65.5147 100.689Z" fill="#FF9900"/>
<path d="M87.5412 85.3908C87.5412 89.9913 83.845 93.6942 79.2436 93.6942C74.6421 93.6942 70.9459 89.9913 70.9459 85.3908C70.9459 80.7902 74.6421 77.0499 79.2436 77.0499C83.845 77.0499 87.5412 80.7902 87.5412 85.3908Z" fill="#FF9900"/>
<path d="M86.5606 105.85C86.5606 110.114 83.1284 113.518 78.9041 113.518C74.6799 113.518 71.2477 110.077 71.2477 105.85C71.2477 101.624 74.6799 98.1827 78.9041 98.1827C83.1284 98.1827 86.5606 101.624 86.5606 105.85Z" fill="#FF9900"/>
<path d="M108.399 92.5721C108.399 96.7987 104.966 100.24 100.742 100.24C96.5179 100.24 93.0857 96.7987 93.0857 92.5721C93.0857 88.3456 96.5179 84.9045 100.742 84.9045C104.966 84.9045 108.399 88.3456 108.399 92.5721Z" fill="#FF9900"/>
<path d="M88.371 123.878C88.371 127.768 85.2028 130.91 81.3557 130.91C77.5087 130.91 74.3405 127.731 74.3405 123.878C74.3405 120.026 77.4709 116.847 81.3557 116.847C85.2406 116.847 88.371 119.989 88.371 123.878Z" fill="#FF9900"/>
<path d="M106.551 111.311C106.551 115.201 103.42 118.343 99.5353 118.343C95.6505 118.343 92.52 115.201 92.52 111.311C92.52 107.421 95.6505 104.279 99.5353 104.279C103.42 104.279 106.551 107.421 106.551 111.311Z" fill="#FF9900"/>
<path d="M92.3313 140.859C92.3313 144.413 89.4649 147.255 85.9195 147.255C82.3742 147.255 79.5454 144.413 79.5454 140.859C79.5454 137.306 82.4119 134.463 85.9195 134.463C89.4272 134.463 92.3313 137.343 92.3313 140.859Z" fill="#FF9900"/>
<path d="M106.928 127.619C106.928 131.172 104.099 134.015 100.554 134.015C97.0082 134.015 94.1417 131.172 94.1417 127.619C94.1417 124.065 97.0082 121.185 100.554 121.185C104.099 121.185 106.928 124.065 106.928 127.619Z" fill="#FF9900"/>
<path d="M100.29 154.96C100.29 158.177 97.7249 160.72 94.5567 160.72C91.3885 160.72 88.8237 158.139 88.8237 154.96C88.8237 151.781 91.3885 149.238 94.5567 149.238C97.7249 149.238 100.29 151.781 100.29 154.96Z" fill="#FF9900"/>
<path d="M110.813 141.346C110.813 144.525 108.248 147.068 105.08 147.068C101.911 147.068 99.3467 144.525 99.3467 141.346C99.3467 138.166 101.911 135.586 105.08 135.586C108.248 135.586 110.813 138.166 110.813 141.346Z" fill="#FF9900"/>
<path d="M109.53 165.844C109.53 168.687 107.229 170.969 104.401 170.969C101.572 170.969 99.309 168.687 99.309 165.844C99.309 163.002 101.61 160.72 104.401 160.72C107.192 160.72 109.53 163.002 109.53 165.844Z" fill="#FF9900"/>
<path d="M116.432 152.866C116.432 155.671 114.169 157.99 111.341 157.99C108.512 157.99 106.249 155.671 106.249 152.866C106.249 150.06 108.549 147.741 111.341 147.741C114.132 147.741 116.432 150.023 116.432 152.866Z" fill="#FF9900"/>
<path d="M117.601 175.307C117.601 177.739 115.602 179.758 113.113 179.758C110.624 179.758 108.625 177.739 108.625 175.307C108.625 172.876 110.624 170.819 113.113 170.819C115.602 170.819 117.601 172.839 117.601 175.307Z" fill="#FF9900"/>
<path d="M122.542 163.114C122.542 165.583 120.543 167.565 118.092 167.565C115.64 167.565 113.604 165.583 113.604 163.114C113.604 160.646 115.602 158.663 118.092 158.663C120.581 158.663 122.542 160.646 122.542 163.114Z" fill="#FF9900"/>
<path d="M125.183 183.125C125.183 185.257 123.485 186.94 121.336 186.94C119.186 186.94 117.526 185.219 117.526 183.125C117.526 181.03 119.261 179.272 121.336 179.272C123.41 179.272 125.183 180.993 125.183 183.125Z" fill="#FF9900"/>
<path d="M128.502 171.605C128.502 173.737 126.804 175.42 124.692 175.42C122.58 175.42 120.845 173.699 120.845 171.605C120.845 169.51 122.58 167.752 124.692 167.752C126.804 167.752 128.502 169.473 128.502 171.605Z" fill="#FF9900"/>
<path d="M132.311 189.633C132.311 191.391 130.878 192.812 129.105 192.812C127.332 192.812 125.899 191.391 125.899 189.633C125.899 187.875 127.332 186.453 129.105 186.453C130.878 186.453 132.311 187.875 132.311 189.633Z" fill="#FF9900"/>
<path d="M134.197 178.636C134.197 180.394 132.801 181.853 130.991 181.853C129.18 181.853 127.823 180.394 127.823 178.636C127.823 176.878 129.256 175.457 130.991 175.457C132.726 175.457 134.197 176.878 134.197 178.636Z" fill="#FF9900"/>
<path d="M138.572 195.093C138.572 196.477 137.44 197.637 136.007 197.637C134.574 197.637 133.443 196.477 133.443 195.093C133.443 193.71 134.574 192.513 136.007 192.513C137.44 192.513 138.572 193.672 138.572 195.093Z" fill="#FF9900"/>
<path d="M139.892 184.247C139.892 185.668 138.761 186.828 137.327 186.828C135.894 186.828 134.8 185.668 134.8 184.247C134.8 182.825 135.97 181.703 137.327 181.703C138.685 181.703 139.892 182.825 139.892 184.247Z" fill="#FF9900"/>
<path d="M110.586 72.1876C110.586 76.7508 106.89 80.4911 102.326 80.4911C97.7626 80.4911 94.0287 76.7882 94.0287 72.1876C94.0287 67.5871 97.7249 63.8468 102.326 63.8468C106.928 63.8468 110.586 67.5497 110.586 72.1876Z" fill="#FF9900"/>
<path d="M66.307 122.831C66.307 127.058 62.8748 130.499 58.6505 130.499C54.4262 130.499 50.994 127.058 50.994 122.831C50.994 118.605 54.4262 115.164 58.6505 115.164C62.8748 115.164 66.307 118.605 66.307 122.831Z" fill="#FF9900"/>
<path d="M68.9847 142.58C68.9847 146.47 65.8542 149.612 61.9694 149.612C58.0846 149.612 54.9541 146.47 54.9541 142.58C54.9541 138.69 58.0846 135.548 61.9694 135.548C65.8542 135.548 68.9847 138.69 68.9847 142.58Z" fill="#FF9900"/>
<path d="M74.001 160.571C74.001 164.124 71.1346 166.967 67.6269 166.967C64.1193 166.967 61.2528 164.124 61.2528 160.571C61.2528 157.017 64.1193 154.175 67.6269 154.175C71.1346 154.175 74.001 157.055 74.001 160.571Z" fill="#FF9900"/>
<path d="M82.8645 175.457C82.8645 178.636 80.2998 181.217 77.0939 181.217C73.888 181.217 71.361 178.636 71.361 175.457C71.361 172.278 73.9257 169.697 77.0939 169.697C80.2621 169.697 82.8645 172.278 82.8645 175.457Z" fill="#FF9900"/>
<path d="M93.2365 187.613C93.2365 190.418 90.9735 192.7 88.1447 192.7C85.316 192.7 83.053 190.418 83.053 187.613C83.053 184.808 85.3537 182.489 88.1447 182.489C90.9358 182.489 93.2365 184.808 93.2365 187.613Z" fill="#FF9900"/>
<path d="M96.4801 170.669C96.4801 173.512 94.1794 175.794 91.3884 175.794C88.5973 175.794 86.2966 173.512 86.2966 170.669C86.2966 167.827 88.5973 165.583 91.3884 165.583C94.1794 165.583 96.4801 167.864 96.4801 170.669Z" fill="#FF9900"/>
<path d="M104.401 196.627C104.401 199.096 102.402 201.115 99.9124 201.115C97.4231 201.115 95.4241 199.096 95.4241 196.627C95.4241 194.158 97.4231 192.139 99.9124 192.139C102.402 192.139 104.401 194.158 104.401 196.627Z" fill="#FF9900"/>
<path d="M106.06 181.441C106.06 183.947 104.061 185.93 101.61 185.93C99.158 185.93 97.1213 183.947 97.1213 181.441C97.1213 178.935 99.1203 176.953 101.61 176.953C104.099 176.953 106.06 178.935 106.06 181.441Z" fill="#FF9900"/>
<path d="M114.546 203.397C114.546 205.529 112.849 207.25 110.737 207.25C108.625 207.25 106.89 205.529 106.89 203.397C106.89 201.265 108.587 199.582 110.737 199.582C112.887 199.582 114.546 201.265 114.546 203.397Z" fill="#FF9900"/>
<path d="M114.999 189.895C114.999 191.989 113.302 193.71 111.152 193.71C109.002 193.71 107.343 191.989 107.343 189.895C107.343 187.8 109.04 186.079 111.152 186.079C113.264 186.079 114.999 187.8 114.999 189.895Z" fill="#FF9900"/>
<path d="M123.674 210.055C123.674 211.813 122.241 213.271 120.468 213.271C118.695 213.271 117.262 211.813 117.262 210.055C117.262 208.297 118.695 206.838 120.468 206.838C122.241 206.838 123.674 208.259 123.674 210.055Z" fill="#FF9900"/>
<path d="M123.108 196.926C123.108 198.684 121.675 200.143 119.94 200.143C118.205 200.143 116.734 198.684 116.734 196.926C116.734 195.168 118.167 193.747 119.94 193.747C121.713 193.747 123.108 195.168 123.108 196.926Z" fill="#FF9900"/>
<path d="M131.594 215.142C131.594 216.525 130.463 217.685 129.067 217.685C127.672 217.685 126.503 216.525 126.503 215.142C126.503 213.758 127.672 212.561 129.067 212.561C130.463 212.561 131.594 213.72 131.594 215.142Z" fill="#FF9900"/>
<path d="M131.179 202.462C131.179 203.883 130.048 205.043 128.615 205.043C127.181 205.043 126.05 203.921 126.05 202.462C126.05 201.003 127.181 199.919 128.615 199.919C130.048 199.919 131.179 201.078 131.179 202.462Z" fill="#FF9900"/>
<path d="M123.712 22.1051C123.712 27.3789 119.412 31.7176 114.132 31.7176C108.851 31.7176 104.552 27.4163 104.552 22.1051C104.552 16.7939 108.851 12.4926 114.132 12.4926C119.412 12.4926 123.712 16.8313 123.712 22.1051Z" fill="#FF9900"/>
<path d="M94.4058 34.5978C94.4058 39.909 90.1061 44.1729 84.8258 44.1729C79.5454 44.1729 75.2457 39.8716 75.2457 34.5978C75.2457 29.324 79.5454 24.9852 84.8258 24.9852C90.1061 24.9852 94.4058 29.2866 94.4058 34.5978Z" fill="#FF9900"/>
<path d="M65.0999 47.1277C65.0999 52.4015 60.8002 56.7028 55.5198 56.7028C50.2395 56.7028 45.9398 52.4015 45.9398 47.1277C45.9398 41.8539 50.2395 37.5151 55.5198 37.5151C60.8002 37.5151 65.0999 41.8165 65.0999 47.1277Z" fill="#FF9900"/>
<path d="M138.232 219.592C138.232 220.64 137.365 221.5 136.347 221.5C135.328 221.5 134.423 220.64 134.423 219.592C134.423 218.545 135.29 217.685 136.347 217.685C137.403 217.685 138.232 218.508 138.232 219.592Z" fill="#FF9900"/>
<path d="M138.911 206.875C138.911 207.923 138.082 208.783 136.988 208.783C135.894 208.783 135.102 207.923 135.102 206.875C135.102 205.828 135.969 204.931 136.988 204.931C138.006 204.931 138.911 205.791 138.911 206.875Z" fill="#FF9900"/>
<path d="M325.043 96.724C320.064 98.4819 314.558 95.8637 312.823 90.8892C311.05 85.8772 313.652 80.4163 318.631 78.621C323.61 76.8631 329.116 79.4813 330.851 84.4933C332.624 89.4678 330.021 94.9661 325.005 96.724" fill="#FF9900"/>
<path d="M234.07 35.9442C229.431 37.5899 224.302 35.1587 222.68 30.5208C221.02 25.8454 223.472 20.7586 228.111 19.0755C232.75 17.4298 237.88 19.8609 239.502 24.5363C241.161 29.2117 238.71 34.2985 234.07 35.9442Z" fill="#FF9900"/>
<path d="M254.701 55.1319C250.024 56.7776 244.933 54.3464 243.311 49.671C241.651 44.9957 244.065 39.9089 248.742 38.2258C253.419 36.58 258.511 39.0112 260.17 43.6866C261.83 48.3245 259.378 53.4861 254.739 55.1319" fill="#FF9900"/>
<path d="M275.295 74.2822C270.656 75.9279 265.526 73.4967 263.904 68.8214C262.245 64.146 264.696 59.0592 269.335 57.4135C274.012 55.7678 279.104 58.1989 280.726 62.8369C282.385 67.5123 279.934 72.5991 275.295 74.2822Z" fill="#FF9900"/>
<path d="M295.435 95.9385C291.098 97.4346 286.383 95.1904 284.875 90.8143C283.328 86.5129 285.591 81.7254 289.929 80.2293C294.266 78.6957 298.981 80.9773 300.527 85.2786C302.073 89.6174 299.81 94.3675 295.435 95.9385Z" fill="#FF9900"/>
<path d="M270.58 96.1629C266.922 97.472 262.924 95.527 261.603 91.8616C260.321 88.2335 262.207 84.194 265.865 82.8849C269.524 81.5758 273.56 83.4833 274.842 87.1488C276.124 90.8143 274.239 94.8164 270.542 96.1255" fill="#FF9900"/>
<path d="M247.309 97.472C244.329 98.5566 241.01 96.9857 239.992 93.9561C238.936 90.9265 240.482 87.6724 243.462 86.5877C246.479 85.5404 249.761 87.0739 250.817 90.1036C251.873 93.1332 250.326 96.4247 247.309 97.472Z" fill="#FF9900"/>
<path d="M229.62 99.9405C227.281 100.763 224.717 99.5665 223.925 97.2101C223.095 94.8911 224.339 92.3477 226.64 91.4874C228.979 90.6646 231.543 91.8989 232.335 94.2178C233.165 96.5742 231.958 99.155 229.62 99.9405Z" fill="#FF9900"/>
<path d="M213.326 102.783C211.667 103.344 209.856 102.484 209.253 100.838C208.687 99.1551 209.517 97.3598 211.214 96.7613C212.874 96.1629 214.722 97.0231 215.287 98.6689C215.853 100.352 215.023 102.185 213.326 102.783Z" fill="#FF9900"/>
<path d="M210.083 44.4721C205.745 46.0056 201.031 43.7614 199.484 39.4227C197.938 35.1214 200.239 30.3338 204.538 28.8377C208.876 27.3041 213.59 29.5857 215.137 33.9245C216.645 38.2258 214.42 43.0134 210.083 44.4721Z" fill="#FF9900"/>
<path d="M231.845 60.1813C227.508 61.7148 222.793 59.4333 221.284 55.0945C219.738 50.7558 222.001 46.0056 226.338 44.4721C230.676 42.976 235.39 45.2201 236.937 49.5215C238.445 53.8602 236.22 58.6104 231.883 60.1439" fill="#FF9900"/>
<path d="M212.27 66.0535C208.31 67.4748 203.935 65.3802 202.502 61.3781C201.068 57.376 203.18 52.9998 207.141 51.5785C211.139 50.1572 215.514 52.2518 216.947 56.2539C218.343 60.256 216.268 64.6321 212.27 66.0535Z" fill="#FF9900"/>
<path d="M232.034 82.249C228.073 83.6703 223.698 81.5757 222.265 77.5736C220.832 73.5715 222.944 69.1953 226.942 67.774C230.94 66.3527 235.315 68.4847 236.711 72.4494C238.144 76.4515 236.032 80.7902 232.034 82.2115" fill="#FF9900"/>
<path d="M195.901 73.7959C192.243 75.105 188.207 73.1974 186.925 69.4945C185.642 65.829 187.528 61.8269 191.224 60.5552C194.883 59.2087 198.881 61.1537 200.201 64.8192C201.483 68.4846 199.56 72.4868 195.901 73.7959Z" fill="#FF9900"/>
<path d="M213.817 86.7374C210.158 88.0465 206.16 86.1389 204.84 82.4734C203.558 78.8079 205.444 74.8058 209.102 73.4967C212.761 72.225 216.759 74.1326 218.079 77.7607C219.361 81.4636 217.475 85.4657 213.817 86.7374Z" fill="#FF9900"/>
<path d="M181.229 83.184C177.91 84.3435 174.29 82.623 173.083 79.2941C171.913 75.9653 173.648 72.2998 176.967 71.1403C180.287 69.9434 183.945 71.7013 185.114 75.0302C186.283 78.3591 184.548 82.0245 181.229 83.184Z" fill="#FF9900"/>
<path d="M198.617 92.5722C195.298 93.7316 191.639 92.0111 190.47 88.6823C189.301 85.3534 191.036 81.6879 194.355 80.491C197.674 79.3315 201.332 81.0895 202.502 84.4183C203.671 87.7472 201.936 91.4127 198.617 92.5722Z" fill="#FF9900"/>
<path d="M170.631 95.4149C167.651 96.537 164.37 94.9287 163.276 91.9364C162.22 88.9068 163.804 85.6527 166.784 84.5681C169.801 83.5208 173.083 85.0543 174.139 88.0839C175.195 91.0762 173.611 94.3676 170.631 95.4149Z" fill="#FF9900"/>
<path d="M187 100.801C184.02 101.886 180.739 100.277 179.683 97.2849C178.589 94.2927 180.173 91.0013 183.191 89.954C186.208 88.8693 189.452 90.4402 190.508 93.4698C191.564 96.4621 190.017 99.7535 187 100.801Z" fill="#FF9900"/>
<path d="M163.503 107.758C160.862 108.693 157.958 107.309 156.978 104.653C156.072 101.998 157.43 99.0803 160.108 98.1078C162.786 97.1727 165.69 98.5566 166.633 101.212C167.576 103.905 166.18 106.823 163.503 107.758Z" fill="#FF9900"/>
<path d="M178.024 110.002C175.346 110.9 172.441 109.553 171.499 106.86C170.556 104.167 171.951 101.287 174.591 100.315C177.231 99.3795 180.173 100.801 181.116 103.456C182.059 106.112 180.664 109.067 178.024 110.002Z" fill="#FF9900"/>
<path d="M157.317 118.567C154.979 119.39 152.452 118.193 151.622 115.837C150.792 113.518 152.037 110.937 154.337 110.152C156.676 109.291 159.203 110.526 160.033 112.882C160.862 115.238 159.618 117.744 157.317 118.605" fill="#FF9900"/>
<path d="M170.367 119.166C168.066 119.989 165.502 118.754 164.672 116.435C163.842 114.116 165.087 111.535 167.387 110.713C169.726 109.89 172.253 111.087 173.083 113.443C173.912 115.799 172.668 118.343 170.367 119.166Z" fill="#FF9900"/>
<path d="M152.452 128.329C150.453 129.04 148.265 127.993 147.548 125.973C146.832 123.991 147.888 121.784 149.887 121.073C151.886 120.362 154.073 121.41 154.79 123.392C155.507 125.412 154.451 127.581 152.452 128.292" fill="#FF9900"/>
<path d="M164.408 127.619C162.409 128.329 160.221 127.282 159.542 125.262C158.826 123.28 159.882 121.073 161.881 120.363C163.88 119.652 166.067 120.699 166.784 122.682C167.501 124.701 166.445 126.908 164.408 127.619Z" fill="#FF9900"/>
<path d="M148.718 137.231C147.058 137.83 145.21 136.932 144.644 135.286C144.041 133.603 144.908 131.77 146.606 131.172C148.265 130.574 150.075 131.471 150.679 133.117C151.282 134.763 150.377 136.595 148.718 137.231Z" fill="#FF9900"/>
<path d="M159.693 135.361C158.034 135.96 156.223 135.062 155.62 133.416C155.054 131.77 155.922 129.938 157.581 129.339C159.241 128.778 161.051 129.639 161.654 131.284C162.258 132.93 161.353 134.763 159.693 135.361Z" fill="#FF9900"/>
<path d="M145.7 144.974C144.38 145.46 142.909 144.749 142.457 143.403C141.966 142.094 142.683 140.635 144.003 140.149C145.323 139.662 146.794 140.373 147.284 141.682C147.737 143.029 147.058 144.487 145.7 144.974Z" fill="#FF9900"/>
<path d="M156.337 142.58C155.016 143.029 153.545 142.355 153.055 141.009C152.603 139.7 153.281 138.204 154.639 137.755C155.959 137.306 157.43 137.979 157.883 139.326C158.373 140.672 157.657 142.131 156.337 142.58Z" fill="#FF9900"/>
<path d="M251.986 77.5361C247.648 79.0322 242.934 76.7881 241.425 72.4493C239.879 68.1106 242.142 63.3978 246.479 61.8269C250.816 60.2934 255.569 62.575 257.077 66.8763C258.586 71.215 256.361 75.9652 252.023 77.4987" fill="#FF9900"/>
<path d="M189.565 52.5886C185.567 54.0099 181.192 51.9527 179.796 47.9132C178.401 43.9111 180.475 39.5349 184.473 38.151C188.471 36.7297 192.846 38.8243 194.242 42.8264C195.675 46.8285 193.563 51.2047 189.565 52.5886Z" fill="#FF9900"/>
<path d="M171.838 61.7148C168.179 62.9865 164.181 61.079 162.861 57.4509C161.579 53.7854 163.503 49.7833 167.161 48.4368C170.82 47.1277 174.818 49.0726 176.138 52.7381C177.42 56.4036 175.496 60.4057 171.838 61.7148Z" fill="#FF9900"/>
<path d="M156.6 72.4494C153.244 73.6463 149.623 71.8884 148.454 68.5595C147.284 65.2307 149.019 61.5652 152.338 60.4057C155.657 59.2088 159.316 60.9667 160.485 64.2956C161.692 67.6244 159.957 71.2899 156.6 72.4494Z" fill="#FF9900"/>
<path d="M145.549 85.8022C142.57 86.8495 139.289 85.2786 138.232 82.2864C137.176 79.2941 138.76 76.0027 141.74 74.918C144.72 73.8707 148.001 75.4416 149.057 78.4339C150.113 81.4261 148.529 84.7176 145.549 85.7648" fill="#FF9900"/>
<path d="M137.591 99.6413C134.951 100.576 132.009 99.1924 131.066 96.5368C130.123 93.8438 131.519 90.9264 134.197 89.9913C136.837 89.0563 139.779 90.4028 140.722 93.1332C141.665 95.7888 140.269 98.7062 137.629 99.6413" fill="#FF9900"/>
<path d="M154.601 97.0606C151.924 97.9957 149.019 96.6118 148.076 93.9188C147.134 91.2632 148.529 88.3083 151.169 87.4107C153.809 86.4756 156.751 87.8595 157.694 90.5151C158.637 93.2081 157.242 96.0881 154.601 97.0606Z" fill="#FF9900"/>
<path d="M132.839 113.181C130.501 114.004 127.936 112.807 127.106 110.451C126.276 108.132 127.521 105.551 129.859 104.728C132.198 103.905 134.725 105.102 135.555 107.459C136.384 109.815 135.177 112.321 132.839 113.181Z" fill="#FF9900"/>
<path d="M147.662 109.703C145.323 110.526 142.796 109.291 141.966 107.01C141.137 104.653 142.381 102.11 144.682 101.287C147.02 100.464 149.547 101.661 150.377 103.98C151.207 106.336 150 108.88 147.662 109.703Z" fill="#FF9900"/>
<path d="M129.822 125.038C127.823 125.749 125.635 124.701 124.919 122.719C124.202 120.699 125.258 118.53 127.257 117.819C129.256 117.109 131.443 118.156 132.16 120.176C132.877 122.195 131.821 124.365 129.822 125.075" fill="#FF9900"/>
<path d="M142.683 120.961C140.684 121.634 138.496 120.624 137.78 118.605C137.101 116.622 138.119 114.416 140.118 113.705C142.117 112.994 144.305 114.041 145.021 116.061C145.738 118.044 144.682 120.25 142.683 120.961Z" fill="#FF9900"/>
<path d="M126.653 135.885C124.994 136.483 123.183 135.586 122.58 133.902C122.014 132.219 122.882 130.424 124.541 129.826C126.201 129.227 128.049 130.087 128.615 131.77C129.218 133.416 128.351 135.286 126.653 135.885Z" fill="#FF9900"/>
<path d="M138.761 130.985C137.101 131.584 135.253 130.723 134.687 129.04C134.084 127.357 134.951 125.524 136.611 124.963C138.27 124.365 140.118 125.225 140.684 126.908C141.288 128.554 140.382 130.387 138.761 130.985Z" fill="#FF9900"/>
<path d="M124.504 145.049C123.184 145.535 121.713 144.824 121.222 143.478C120.77 142.131 121.449 140.672 122.806 140.224C124.126 139.737 125.597 140.448 126.088 141.794C126.578 143.141 125.861 144.6 124.504 145.049Z" fill="#FF9900"/>
<path d="M136.233 140.448C134.876 140.934 133.442 140.224 132.99 138.877C132.5 137.531 133.216 136.072 134.536 135.586C135.856 135.137 137.327 135.847 137.78 137.157C138.27 138.466 137.554 139.924 136.233 140.411" fill="#FF9900"/>
<path d="M303.507 73.1974C298.528 74.9553 293.021 72.3745 291.286 67.3625C289.514 62.3506 292.154 56.8897 297.095 55.1318C302.111 53.3739 307.542 55.9547 309.315 60.9666C311.088 65.9786 308.485 71.4395 303.507 73.1974Z" fill="#FF9900"/>
<path d="M281.933 49.7084C276.954 51.4664 271.485 48.8856 269.713 43.8736C267.94 38.8616 270.58 33.4008 275.559 31.6054C280.537 29.8475 286.044 32.4283 287.779 37.4403C289.552 42.4523 286.949 47.9131 281.933 49.7084Z" fill="#FF9900"/>
<path d="M260.397 26.2195C255.418 27.9775 249.949 25.3593 248.176 20.3847C246.404 15.3727 249.006 9.87447 254.022 8.11653C259.001 6.3586 264.47 8.9394 266.243 13.9514C268.015 18.9634 265.413 24.4242 260.434 26.2195" fill="#FF9900"/>
<path d="M122.505 152.866C121.524 153.202 120.43 152.679 120.053 151.706C119.714 150.696 120.242 149.612 121.222 149.238C122.203 148.901 123.334 149.425 123.674 150.397C124.013 151.37 123.485 152.492 122.505 152.866Z" fill="#FF9900"/>
<path d="M134.687 149.238C133.706 149.574 132.613 149.051 132.236 148.041C131.896 147.031 132.424 145.946 133.405 145.61C134.385 145.236 135.479 145.797 135.856 146.769C136.196 147.742 135.668 148.864 134.687 149.238Z" fill="#FF9900"/>
<path d="M297.585 289.012C294.304 284.861 294.983 278.839 299.094 275.547C303.205 272.256 309.24 272.929 312.559 277.043C315.878 281.195 315.199 287.217 311.05 290.546C306.901 293.875 300.904 293.201 297.585 289.012Z" fill="#FF9900"/>
<path d="M325.118 183.012C322.025 179.123 322.667 173.512 326.514 170.445C330.361 167.341 335.981 167.976 339.073 171.829C342.128 175.681 341.525 181.329 337.678 184.434C333.831 187.538 328.173 186.902 325.118 183.012Z" fill="#FF9900"/>
<path d="M313.803 208.82C310.711 204.968 311.352 199.32 315.199 196.253C319.084 193.149 324.703 193.784 327.758 197.674C330.851 201.527 330.21 207.175 326.363 210.242C322.478 213.346 316.858 212.71 313.803 208.858" fill="#FF9900"/>
<path d="M302.451 234.591C299.358 230.739 299.999 225.091 303.846 222.024C307.693 218.919 313.313 219.593 316.406 223.445C319.498 227.298 318.857 232.945 315.01 236.012C311.163 239.079 305.543 238.481 302.451 234.591Z" fill="#FF9900"/>
<path d="M288.684 260.736C285.818 257.145 286.383 251.909 289.966 249.066C293.55 246.223 298.792 246.784 301.621 250.375C304.487 253.966 303.922 259.165 300.338 262.045C296.755 264.925 291.513 264.364 288.684 260.736Z" fill="#FF9900"/>
<path d="M280.311 237.322C277.859 234.292 278.387 229.878 281.405 227.41C284.422 224.979 288.835 225.502 291.286 228.494C293.7 231.561 293.21 235.975 290.155 238.406C287.138 240.875 282.725 240.351 280.311 237.322Z" fill="#FF9900"/>
<path d="M271.447 215.74C269.486 213.271 269.863 209.643 272.353 207.624C274.842 205.641 278.425 206.053 280.424 208.521C282.385 211.027 282.008 214.618 279.519 216.638C277.067 218.62 273.446 218.209 271.447 215.74Z" fill="#FF9900"/>
<path d="M263.301 199.769C261.792 197.824 262.094 195.019 264.017 193.448C265.903 191.914 268.732 192.251 270.278 194.196C271.825 196.141 271.523 198.946 269.599 200.48C267.676 202.013 264.847 201.714 263.301 199.769Z" fill="#FF9900"/>
<path d="M255.305 185.294C254.211 183.91 254.437 181.89 255.833 180.806C257.191 179.684 259.19 179.908 260.321 181.292C261.415 182.713 261.189 184.696 259.831 185.78C258.435 186.902 256.436 186.678 255.343 185.294" fill="#FF9900"/>
<path d="M309.239 163.114C306.373 159.523 306.939 154.287 310.56 151.444C314.143 148.564 319.385 149.163 322.252 152.753C325.118 156.344 324.515 161.581 320.932 164.423C317.349 167.266 312.144 166.667 309.277 163.114" fill="#FF9900"/>
<path d="M301.545 188.847C298.679 185.257 299.282 180.02 302.828 177.14C306.411 174.298 311.653 174.859 314.482 178.449C317.349 182.04 316.783 187.239 313.2 190.119C309.617 192.999 304.412 192.401 301.508 188.81" fill="#FF9900"/>
<path d="M289.589 172.24C286.949 168.911 287.477 164.124 290.796 161.468C294.115 158.813 298.905 159.374 301.545 162.665C304.186 165.957 303.658 170.782 300.338 173.437C297.019 176.093 292.229 175.569 289.552 172.203" fill="#FF9900"/>
<path d="M280.801 196.291C278.123 192.962 278.689 188.137 282.008 185.519C285.327 182.863 290.117 183.387 292.757 186.715C295.398 190.007 294.87 194.832 291.55 197.487C288.231 200.143 283.441 199.619 280.801 196.291Z" fill="#FF9900"/>
<path d="M276.916 159.299C274.503 156.269 274.993 151.818 278.01 149.387C281.028 146.956 285.478 147.442 287.892 150.472C290.306 153.539 289.778 157.953 286.798 160.384C283.781 162.815 279.33 162.291 276.916 159.299Z" fill="#FF9900"/>
<path d="M270.542 180.507C268.091 177.477 268.619 173.026 271.636 170.632C274.653 168.201 279.104 168.725 281.518 171.754C283.932 174.784 283.441 179.197 280.424 181.629C277.407 184.06 272.956 183.574 270.542 180.507Z" fill="#FF9900"/>
<path d="M263.263 148.49C261.076 145.722 261.528 141.72 264.281 139.513C267.035 137.306 271.07 137.755 273.258 140.523C275.446 143.29 274.993 147.293 272.24 149.499C269.486 151.706 265.451 151.257 263.263 148.49Z" fill="#FF9900"/>
<path d="M260.132 167.977C257.907 165.209 258.36 161.207 261.151 159C263.904 156.793 267.94 157.242 270.127 160.01C272.315 162.778 271.9 166.78 269.147 168.986C266.393 171.231 262.395 170.744 260.132 167.977Z" fill="#FF9900"/>
<path d="M248.252 142.468C246.291 139.962 246.668 136.371 249.157 134.351C251.646 132.369 255.267 132.78 257.228 135.286C259.19 137.755 258.812 141.383 256.323 143.365C253.834 145.348 250.251 144.936 248.252 142.468Z" fill="#FF9900"/>
<path d="M248.516 159.71C246.555 157.242 246.932 153.614 249.421 151.594C251.91 149.612 255.531 150.023 257.492 152.492C259.491 154.998 259.076 158.588 256.587 160.608C254.098 162.59 250.515 162.179 248.516 159.71Z" fill="#FF9900"/>
<path d="M234.259 139.737C232.524 137.53 232.863 134.314 235.051 132.556C237.276 130.798 240.482 131.172 242.217 133.341C243.99 135.548 243.613 138.765 241.425 140.523C239.2 142.318 235.994 141.944 234.259 139.737Z" fill="#FF9900"/>
<path d="M236.937 154.212C235.164 152.005 235.541 148.789 237.729 147.031C239.954 145.273 243.16 145.609 244.895 147.854C246.668 150.06 246.29 153.24 244.103 155.035C241.915 156.793 238.672 156.419 236.937 154.212Z" fill="#FF9900"/>
<path d="M222.039 137.418C220.492 135.473 220.794 132.668 222.755 131.135C224.717 129.564 227.508 129.9 229.016 131.845C230.563 133.79 230.261 136.558 228.337 138.129C226.414 139.662 223.585 139.363 222.039 137.418Z" fill="#FF9900"/>
<path d="M225.811 150.023C224.264 148.078 224.566 145.273 226.527 143.739C228.451 142.169 231.279 142.505 232.788 144.45C234.334 146.358 234.033 149.2 232.071 150.734C230.148 152.305 227.319 151.968 225.811 150.023Z" fill="#FF9900"/>
<path d="M211.252 136.034C209.932 134.389 210.196 131.958 211.855 130.648C213.477 129.339 215.891 129.601 217.249 131.247C218.569 132.893 218.305 135.324 216.645 136.633C214.986 137.979 212.572 137.718 211.252 136.034Z" fill="#FF9900"/>
<path d="M215.853 147.106C214.533 145.46 214.797 143.029 216.457 141.72C218.116 140.41 220.53 140.672 221.85 142.318C223.17 143.964 222.868 146.358 221.247 147.704C219.587 149.051 217.211 148.751 215.853 147.106Z" fill="#FF9900"/>
<path d="M201.634 135.398C200.54 134.015 200.767 131.995 202.124 130.91C203.52 129.825 205.519 130.05 206.613 131.396C207.706 132.78 207.48 134.8 206.122 135.885C204.727 136.969 202.728 136.745 201.634 135.398Z" fill="#FF9900"/>
<path d="M206.99 145.161C205.896 143.777 206.122 141.794 207.48 140.672C208.876 139.55 210.875 139.812 211.968 141.159C213.062 142.505 212.836 144.562 211.44 145.684C210.083 146.769 208.084 146.545 206.99 145.161Z" fill="#FF9900"/>
<path d="M193.336 135.062C192.469 133.94 192.62 132.331 193.751 131.471C194.845 130.574 196.467 130.761 197.334 131.883C198.202 133.005 198.051 134.576 196.919 135.473C195.826 136.371 194.204 136.184 193.336 135.062Z" fill="#FF9900"/>
<path d="M199.107 144.375C198.24 143.253 198.428 141.645 199.522 140.785C200.653 139.887 202.238 140.074 203.105 141.196C203.972 142.281 203.822 143.926 202.69 144.824C201.596 145.684 199.974 145.535 199.107 144.413" fill="#FF9900"/>
<path d="M291.777 213.608C288.91 210.017 289.476 204.818 293.059 201.938C296.642 199.058 301.885 199.619 304.714 203.21C307.58 206.801 307.014 212.074 303.394 214.917C299.81 217.76 294.606 217.199 291.739 213.608" fill="#FF9900"/>
<path d="M294.832 146.32C292.192 142.991 292.72 138.204 296.039 135.548C299.358 132.93 304.148 133.454 306.826 136.745C309.466 140.074 308.938 144.936 305.619 147.517C302.3 150.173 297.51 149.612 294.832 146.32Z" fill="#FF9900"/>
<path d="M280.462 132.556C278.01 129.526 278.538 125.075 281.556 122.644C284.573 120.213 289.023 120.699 291.437 123.766C293.851 126.796 293.361 131.247 290.306 133.641C287.289 136.072 282.876 135.548 280.462 132.518" fill="#FF9900"/>
<path d="M265.3 121.634C263.112 118.904 263.527 114.864 266.28 112.658C269.034 110.451 273.069 110.9 275.257 113.667C277.482 116.435 277.029 120.475 274.238 122.682C271.485 124.851 267.449 124.439 265.262 121.672" fill="#FF9900"/>
<path d="M249.119 115.575C247.158 113.069 247.535 109.478 250.024 107.459C252.514 105.476 256.097 105.888 258.096 108.356C260.095 110.825 259.68 114.49 257.191 116.435C254.701 118.418 251.118 118.006 249.119 115.538" fill="#FF9900"/>
<path d="M233.429 112.583C231.656 110.376 231.996 107.159 234.221 105.401C236.447 103.644 239.652 103.98 241.387 106.187C243.16 108.394 242.783 111.61 240.595 113.368C238.37 115.126 235.164 114.752 233.429 112.545" fill="#FF9900"/>
<path d="M241.463 127.806C239.69 125.599 240.067 122.42 242.255 120.624C244.442 118.866 247.648 119.203 249.421 121.447C251.156 123.654 250.817 126.871 248.629 128.629C246.404 130.386 243.198 130.012 241.463 127.806Z" fill="#FF9900"/>
<path d="M219.097 112.471C217.551 110.526 217.852 107.72 219.814 106.187C221.737 104.616 224.566 104.953 226.112 106.898C227.659 108.805 227.357 111.648 225.433 113.219C223.51 114.752 220.681 114.453 219.135 112.508" fill="#FF9900"/>
<path d="M227.244 125.375C225.697 123.467 225.999 120.624 227.96 119.091C229.884 117.52 232.713 117.857 234.221 119.802C235.768 121.709 235.466 124.552 233.542 126.085C231.581 127.656 228.79 127.32 227.244 125.375Z" fill="#FF9900"/>
<path d="M206.952 113.555C205.632 111.91 205.896 109.478 207.556 108.169C209.215 106.86 211.629 107.122 212.949 108.768C214.269 110.413 214.005 112.845 212.346 114.154C210.686 115.5 208.31 115.238 206.952 113.555Z" fill="#FF9900"/>
<path d="M215.023 124.365C213.703 122.719 213.967 120.288 215.627 118.979C217.286 117.67 219.7 117.931 221.02 119.614C222.34 121.26 222.076 123.654 220.417 125.001C218.757 126.31 216.344 126.048 215.023 124.365Z" fill="#FF9900"/>
<path d="M195.675 114.041C194.581 112.695 194.807 110.675 196.165 109.553C197.523 108.468 199.56 108.693 200.653 110.077C201.747 111.461 201.521 113.443 200.125 114.565C198.73 115.687 196.769 115.425 195.675 114.041Z" fill="#FF9900"/>
<path d="M204.274 123.953C203.143 122.532 203.407 120.55 204.765 119.427C206.16 118.305 208.159 118.567 209.253 119.951C210.384 121.335 210.158 123.355 208.763 124.439C207.367 125.562 205.368 125.337 204.274 123.991" fill="#FF9900"/>
<path d="M186.321 115.014C185.454 113.892 185.642 112.321 186.736 111.423C187.83 110.526 189.452 110.713 190.319 111.835C191.187 112.919 190.998 114.528 189.904 115.425C188.81 116.286 187.189 116.099 186.321 115.014Z" fill="#FF9900"/>
<path d="M194.506 124.664C193.638 123.542 193.789 121.934 194.921 121.073C196.014 120.176 197.636 120.363 198.504 121.447C199.371 122.532 199.183 124.14 198.126 125.038C197.033 125.936 195.411 125.749 194.543 124.664" fill="#FF9900"/>
<path d="M312.71 260.923C309.428 256.808 310.107 250.749 314.218 247.458C318.367 244.129 324.364 244.802 327.683 248.954C330.964 253.106 330.323 259.127 326.174 262.419C322.026 265.71 316.029 265.037 312.71 260.885" fill="#FF9900"/>
<path d="M327.834 232.833C324.515 228.681 325.194 222.66 329.343 219.331C333.491 216.039 339.488 216.712 342.807 220.864C346.126 225.016 345.448 231.038 341.299 234.367C337.15 237.658 331.153 236.985 327.834 232.833Z" fill="#FF9900"/>
<path d="M342.921 204.744C339.602 200.592 340.318 194.57 344.429 191.241C348.578 187.95 354.575 188.623 357.894 192.737C361.213 196.889 360.534 202.911 356.385 206.24C352.237 209.568 346.202 208.895 342.921 204.744Z" fill="#FF9900"/>
<path d="M178.325 115.725C177.646 114.864 177.797 113.667 178.627 113.032C179.457 112.396 180.664 112.508 181.343 113.331C181.984 114.154 181.871 115.388 181.041 116.061C180.211 116.697 179.004 116.547 178.363 115.762" fill="#FF9900"/>
<path d="M185.755 126.085C185.076 125.262 185.227 124.065 186.057 123.392C186.887 122.756 188.094 122.869 188.735 123.691C189.414 124.514 189.263 125.749 188.433 126.384C187.603 127.02 186.396 126.908 185.755 126.085Z" fill="#FF9900"/>
<path d="M109.002 329.333C111.869 324.844 117.79 323.573 122.241 326.453C126.729 329.295 128.011 335.242 125.145 339.693C122.278 344.144 116.357 345.453 111.906 342.611C107.456 339.731 106.173 333.784 109.002 329.333Z" fill="#FF9900"/>
<path d="M218.079 321.403C220.756 317.251 226.263 316.055 230.412 318.71C234.561 321.366 235.768 326.901 233.127 331.091C230.487 335.242 224.943 336.477 220.794 333.784C216.645 331.128 215.401 325.555 218.079 321.403Z" fill="#FF9900"/>
<path d="M190.055 318.935C192.733 314.783 198.24 313.549 202.388 316.242C206.575 318.897 207.744 324.47 205.104 328.622C202.464 332.811 196.92 334.008 192.771 331.315C188.622 328.659 187.377 323.124 190.055 318.935Z" fill="#FF9900"/>
<path d="M162.032 316.466C164.709 312.352 170.216 311.117 174.365 313.773C178.514 316.429 179.758 321.964 177.08 326.153C174.44 330.305 168.896 331.539 164.747 328.846C160.598 326.191 159.391 320.618 162.032 316.466Z" fill="#FF9900"/>
<path d="M132.914 311.791C135.404 307.938 140.533 306.779 144.38 309.247C148.227 311.716 149.359 316.878 146.907 320.73C144.418 324.62 139.289 325.742 135.441 323.273C131.594 320.767 130.463 315.643 132.914 311.791Z" fill="#FF9900"/>
<path d="M152.338 296.306C154.451 293.014 158.788 292.079 162.032 294.174C165.313 296.269 166.256 300.607 164.181 303.899C162.069 307.153 157.732 308.125 154.488 306.031C151.207 303.936 150.264 299.597 152.338 296.306Z" fill="#FF9900"/>
<path d="M169.914 280.971C171.612 278.278 175.195 277.492 177.873 279.25C180.55 280.933 181.305 284.487 179.608 287.18C177.91 289.873 174.327 290.658 171.687 288.9C169.009 287.217 168.217 283.626 169.952 280.971" fill="#FF9900"/>
<path d="M182.399 268.142C183.719 266.047 186.51 265.449 188.584 266.795C190.659 268.142 191.3 270.909 189.942 272.967C188.622 275.061 185.869 275.659 183.794 274.313C181.72 272.966 181.116 270.199 182.436 268.104" fill="#FF9900"/>
<path d="M193.525 255.911C194.468 254.415 196.467 253.966 197.938 254.976C199.409 255.911 199.861 257.893 198.919 259.352C197.976 260.848 195.977 261.297 194.506 260.324C193.035 259.389 192.582 257.369 193.525 255.911Z" fill="#FF9900"/>
<path d="M231.77 299.934C234.259 296.082 239.388 294.922 243.235 297.428C247.083 299.897 248.214 305.021 245.725 308.911C243.273 312.763 238.144 313.923 234.259 311.454C230.412 308.986 229.28 303.824 231.732 299.971" fill="#FF9900"/>
<path d="M204.991 300.906C207.442 297.054 212.61 295.932 216.457 298.4C220.304 300.869 221.435 305.993 218.984 309.883C216.494 313.736 211.403 314.895 207.518 312.389C203.671 309.883 202.502 304.759 204.991 300.906Z" fill="#FF9900"/>
<path d="M216.834 284.225C219.135 280.671 223.849 279.624 227.432 281.906C230.978 284.187 231.996 288.938 229.733 292.528C227.432 296.081 222.718 297.129 219.135 294.847C215.589 292.566 214.533 287.778 216.834 284.225Z" fill="#FF9900"/>
<path d="M191.3 283.589C193.563 280.036 198.315 278.988 201.86 281.307C205.443 283.589 206.462 288.339 204.199 291.892C201.898 295.446 197.184 296.53 193.6 294.211C190.055 291.93 188.999 287.18 191.3 283.589Z" fill="#FF9900"/>
<path d="M225.018 268.067C227.13 264.775 231.468 263.84 234.712 265.935C237.993 268.029 238.936 272.405 236.824 275.659C234.749 278.951 230.412 279.886 227.13 277.791C223.849 275.697 222.906 271.358 225.018 268.067Z" fill="#FF9900"/>
<path d="M202.917 268.815C204.991 265.523 209.366 264.588 212.61 266.683C215.891 268.777 216.834 273.116 214.722 276.37C212.647 279.662 208.31 280.634 205.029 278.502C201.747 276.407 200.804 272.069 202.917 268.777" fill="#FF9900"/>
<path d="M230.827 251.609C232.713 248.655 236.673 247.794 239.652 249.702C242.632 251.609 243.5 255.537 241.576 258.529C239.69 261.521 235.73 262.381 232.75 260.474C229.771 258.566 228.941 254.639 230.827 251.609Z" fill="#FF9900"/>
<path d="M211.403 254.901C213.289 251.946 217.249 251.086 220.228 252.956C223.208 254.863 224.076 258.828 222.152 261.783C220.228 264.738 216.306 265.636 213.326 263.728C210.347 261.82 209.479 257.893 211.403 254.863" fill="#FF9900"/>
<path d="M231.732 235.451C233.429 232.796 237.012 232.01 239.652 233.693C242.33 235.451 243.122 238.967 241.387 241.66C239.69 244.353 236.107 245.101 233.467 243.418C230.789 241.698 229.997 238.144 231.732 235.451Z" fill="#FF9900"/>
<path d="M215.514 241.249C217.211 238.593 220.794 237.77 223.472 239.528C226.15 241.211 226.904 244.765 225.207 247.458C223.472 250.113 219.927 250.899 217.287 249.178C214.609 247.458 213.817 243.942 215.552 241.249" fill="#FF9900"/>
<path d="M229.808 221.313C231.317 218.919 234.485 218.246 236.861 219.779C239.238 221.313 239.916 224.455 238.408 226.849C236.899 229.205 233.731 229.916 231.355 228.382C228.979 226.886 228.3 223.707 229.808 221.313Z" fill="#FF9900"/>
<path d="M216.985 228.494C218.493 226.138 221.662 225.427 224.038 226.961C226.414 228.494 227.093 231.674 225.584 234.03C224.076 236.424 220.907 237.097 218.531 235.564C216.117 234.067 215.438 230.888 216.985 228.494Z" fill="#FF9900"/>
<path d="M228.073 208.97C229.394 206.876 232.147 206.314 234.221 207.624C236.296 208.97 236.899 211.738 235.579 213.832C234.259 215.927 231.506 216.525 229.394 215.179C227.319 213.87 226.716 211.102 228.073 208.97Z" fill="#FF9900"/>
<path d="M217.4 216.563C218.72 214.468 221.511 213.87 223.547 215.216C225.622 216.563 226.225 219.331 224.905 221.425C223.585 223.52 220.794 224.118 218.72 222.772C216.608 221.463 216.042 218.695 217.4 216.563Z" fill="#FF9900"/>
<path d="M225.924 198.31C227.055 196.515 229.431 195.991 231.242 197.113C233.014 198.273 233.542 200.629 232.373 202.425C231.242 204.182 228.865 204.744 227.093 203.584C225.32 202.425 224.792 200.068 225.924 198.31Z" fill="#FF9900"/>
<path d="M216.909 206.202C218.079 204.407 220.417 203.921 222.227 205.043C224 206.202 224.528 208.559 223.397 210.354C222.227 212.149 219.889 212.636 218.116 211.513C216.344 210.354 215.816 207.998 216.909 206.202Z" fill="#FF9900"/>
<path d="M223.434 188.959C224.377 187.463 226.338 187.052 227.847 187.987C229.318 188.922 229.771 190.942 228.828 192.401C227.885 193.897 225.886 194.308 224.415 193.336C222.906 192.401 222.491 190.418 223.434 188.959Z" fill="#FF9900"/>
<path d="M215.929 197.151C216.872 195.692 218.833 195.243 220.342 196.216C221.812 197.151 222.227 199.133 221.284 200.629C220.342 202.088 218.38 202.537 216.872 201.602C215.401 200.629 214.948 198.647 215.929 197.151Z" fill="#FF9900"/>
<path d="M221.096 180.993C221.85 179.796 223.434 179.459 224.604 180.245C225.81 180.993 226.15 182.564 225.396 183.761C224.604 184.957 223.019 185.331 221.85 184.546C220.643 183.798 220.304 182.19 221.096 180.993Z" fill="#FF9900"/>
<path d="M214.156 189.408C214.91 188.212 216.494 187.875 217.701 188.623C218.908 189.408 219.21 190.979 218.456 192.139C217.701 193.336 216.117 193.71 214.91 192.924C213.741 192.176 213.402 190.605 214.156 189.408Z" fill="#FF9900"/>
<path d="M178.438 299.597C180.928 295.745 186.057 294.623 189.904 297.091C193.751 299.56 194.883 304.684 192.394 308.574C189.904 312.426 184.775 313.549 180.928 311.08C177.081 308.611 175.949 303.45 178.438 299.597Z" fill="#FF9900"/>
<path d="M243.047 280.896C245.348 277.305 250.062 276.258 253.608 278.54C257.191 280.859 258.209 285.609 255.946 289.162C253.645 292.715 248.931 293.763 245.348 291.481C241.802 289.199 240.746 284.449 243.047 280.896Z" fill="#FF9900"/>
<path d="M251.42 262.793C253.532 259.539 257.832 258.566 261.113 260.698C264.395 262.755 265.3 267.132 263.225 270.386C261.113 273.64 256.776 274.612 253.532 272.518C250.251 270.386 249.346 266.084 251.42 262.793Z" fill="#FF9900"/>
<path d="M256.889 244.952C258.775 241.997 262.735 241.099 265.715 243.007C268.694 244.914 269.524 248.842 267.638 251.871C265.715 254.826 261.792 255.686 258.812 253.779C255.833 251.871 254.965 247.944 256.889 244.952Z" fill="#FF9900"/>
<path d="M257.417 227.634C259.114 224.941 262.66 224.193 265.337 225.914C268.015 227.634 268.77 231.187 267.072 233.88C265.375 236.536 261.792 237.359 259.152 235.601C256.474 233.88 255.72 230.327 257.417 227.634Z" fill="#FF9900"/>
<path d="M255.229 211.775C256.738 209.381 259.906 208.708 262.282 210.242C264.659 211.775 265.337 214.954 263.829 217.311C262.32 219.705 259.152 220.378 256.776 218.882C254.362 217.348 253.683 214.169 255.229 211.775Z" fill="#FF9900"/>
<path d="M243.386 224.305C244.895 221.911 248.063 221.201 250.439 222.734C252.816 224.268 253.494 227.447 251.986 229.803C250.477 232.197 247.309 232.908 244.933 231.337C242.557 229.841 241.878 226.662 243.386 224.305Z" fill="#FF9900"/>
<path d="M250.703 198.198C252.061 196.103 254.777 195.505 256.889 196.814C258.963 198.161 259.567 200.928 258.247 203.023C256.927 205.118 254.136 205.716 252.099 204.369C250.024 203.06 249.421 200.255 250.741 198.198" fill="#FF9900"/>
<path d="M241.123 210.055C242.443 207.96 245.235 207.362 247.271 208.671C249.383 210.017 249.949 212.785 248.629 214.842C247.309 216.937 244.556 217.535 242.443 216.226C240.369 214.88 239.766 212.149 241.123 210.055Z" fill="#FF9900"/>
<path d="M245.8 186.977C246.969 185.182 249.308 184.696 251.118 185.78C252.891 186.94 253.419 189.296 252.287 191.091C251.118 192.849 248.78 193.373 246.969 192.251C245.197 191.091 244.669 188.735 245.8 186.977Z" fill="#FF9900"/>
<path d="M238.144 198.123C239.275 196.328 241.651 195.804 243.424 196.964C245.197 198.123 245.725 200.48 244.593 202.275C243.462 204.033 241.086 204.594 239.313 203.435C237.503 202.275 237.012 199.919 238.144 198.123Z" fill="#FF9900"/>
<path d="M241.689 176.467C242.632 174.971 244.631 174.522 246.102 175.494C247.573 176.429 248.026 178.412 247.045 179.908C246.102 181.404 244.141 181.853 242.632 180.88C241.161 179.945 240.709 177.926 241.651 176.467" fill="#FF9900"/>
<path d="M235.089 187.8C236.032 186.304 238.031 185.855 239.502 186.828C240.973 187.763 241.387 189.745 240.445 191.241C239.502 192.7 237.54 193.149 236.032 192.176C234.561 191.241 234.108 189.296 235.089 187.8Z" fill="#FF9900"/>
<path d="M237.767 167.902C238.521 166.705 240.105 166.368 241.312 167.116C242.519 167.864 242.858 169.473 242.104 170.669C241.35 171.866 239.766 172.203 238.559 171.455C237.352 170.707 237.012 169.099 237.767 167.939" fill="#FF9900"/>
<path d="M231.317 178.748C232.071 177.552 233.656 177.215 234.862 177.963C236.032 178.711 236.409 180.319 235.655 181.479C234.9 182.676 233.278 183.012 232.109 182.264C230.902 181.479 230.563 179.945 231.317 178.748Z" fill="#FF9900"/>
<path d="M140.42 334.681C143.286 330.193 149.208 328.921 153.659 331.801C158.109 334.644 159.429 340.591 156.563 345.042C153.696 349.493 147.812 350.802 143.324 347.922C138.874 345.079 137.591 339.132 140.42 334.681Z" fill="#FF9900"/>
<path d="M171.838 339.992C174.704 335.504 180.626 334.232 185.076 337.038C189.527 339.918 190.809 345.827 187.981 350.316C185.114 354.767 179.23 356.076 174.742 353.233C170.292 350.39 169.009 344.443 171.838 339.992Z" fill="#FF9900"/>
<path d="M203.256 345.266C206.122 340.815 212.044 339.506 216.494 342.349C220.945 345.191 222.265 351.139 219.399 355.589C216.532 360.04 210.611 361.35 206.16 358.469C201.71 355.627 200.427 349.717 203.256 345.229" fill="#FF9900"/>
<path d="M234.561 160.533C235.127 159.636 236.296 159.374 237.201 159.935C238.068 160.496 238.332 161.693 237.767 162.591C237.201 163.488 235.994 163.75 235.127 163.189C234.221 162.591 233.995 161.394 234.561 160.533Z" fill="#FF9900"/>
<path d="M227.168 170.894C227.734 170.034 228.903 169.734 229.808 170.333C230.676 170.894 230.94 172.091 230.374 172.988C229.808 173.886 228.639 174.185 227.734 173.587C226.829 173.026 226.602 171.829 227.168 170.894Z" fill="#FF9900"/>
<path d="M12.3344 152.454C17.3884 153.988 20.2549 159.336 18.7462 164.423C17.2375 169.51 11.8818 172.353 6.82776 170.819C1.77373 169.286 -1.13045 163.937 0.415934 158.85C1.9246 153.763 7.28036 150.883 12.3344 152.417" fill="#FF9900"/>
<path d="M49.7493 255.387C54.4638 256.808 57.1417 261.783 55.7085 266.533C54.2753 271.246 49.2967 273.939 44.5821 272.518C39.8675 271.096 37.1896 266.122 38.6229 261.372C40.0561 256.659 45.0347 253.966 49.7493 255.425" fill="#FF9900"/>
<path d="M44.4312 227.672C49.1458 229.093 51.8237 234.105 50.3905 238.818C48.9572 243.568 43.9786 246.261 39.2641 244.802C34.5495 243.381 31.8716 238.369 33.2671 233.656C34.7003 228.943 39.6789 226.25 44.4312 227.672Z" fill="#FF9900"/>
<path d="M39.1509 200.031C43.8654 201.452 46.5433 206.464 45.1101 211.214C43.6769 215.927 38.6983 218.62 33.946 217.199C29.2314 215.777 26.5535 210.765 27.9867 206.053C29.42 201.302 34.3986 198.647 39.1131 200.068" fill="#FF9900"/>
<path d="M35.7187 170.669C40.0938 172.016 42.5831 176.654 41.263 181.03C39.9429 185.444 35.3038 187.912 30.9287 186.603C26.5535 185.257 24.0643 180.619 25.3843 176.242C26.7044 171.866 31.3436 169.36 35.7187 170.669Z" fill="#FF9900"/>
<path d="M55.8594 185.144C59.5556 186.266 61.6678 190.194 60.5363 193.934C59.4048 197.637 55.4822 199.769 51.786 198.647C48.0521 197.525 45.9776 193.597 47.1091 189.857C48.2029 186.154 52.1255 184.06 55.8594 185.144Z" fill="#FF9900"/>
<path d="M75.4343 197.899C78.4516 198.796 80.1489 202.013 79.2814 205.08C78.3762 208.147 75.1703 209.83 72.1153 208.933C69.0602 208.035 67.363 204.818 68.2682 201.789C69.1734 198.722 72.3793 197.001 75.4343 197.899Z" fill="#FF9900"/>
<path d="M91.1243 206.427C93.5004 207.137 94.8205 209.643 94.1039 212C93.3873 214.356 90.898 215.703 88.5218 214.992C86.1457 214.281 84.8256 211.775 85.5422 209.419C86.2588 207.062 88.7481 205.753 91.1243 206.427Z" fill="#FF9900"/>
<path d="M105.909 213.832C107.607 214.356 108.549 216.114 108.059 217.835C107.531 219.555 105.758 220.49 104.099 219.967C102.402 219.443 101.421 217.685 101.949 215.964C102.477 214.281 104.25 213.346 105.909 213.832Z" fill="#FF9900"/>
<path d="M74.0765 262.718C78.4516 264.027 80.9786 268.703 79.6208 273.079C78.3008 277.455 73.6616 279.961 69.2865 278.614C64.8736 277.268 62.4221 272.667 63.7421 268.254C65.0622 263.878 69.7014 261.372 74.0765 262.718Z" fill="#FF9900"/>
<path d="M65.8543 237.172C70.2294 238.481 72.7187 243.156 71.3986 247.532C70.0786 251.909 65.4394 254.377 61.0643 253.068C56.6892 251.722 54.1999 247.084 55.52 242.708C56.84 238.294 61.4792 235.825 65.8543 237.172Z" fill="#FF9900"/>
<path d="M85.0898 244.017C89.1254 245.251 91.4639 249.515 90.2192 253.592C88.9746 257.631 84.7126 259.913 80.6769 258.716C76.6412 257.482 74.3405 253.218 75.5475 249.178C76.7921 245.101 81.0541 242.82 85.0898 244.017Z" fill="#FF9900"/>
<path d="M78.7156 219.256C82.7513 220.49 85.052 224.754 83.8074 228.831C82.6004 232.908 78.3384 235.152 74.265 233.955C70.2294 232.721 67.9287 228.42 69.1356 224.38C70.3425 220.303 74.6422 218.022 78.6779 219.256" fill="#FF9900"/>
<path d="M102.817 247.532C106.55 248.655 108.625 252.582 107.531 256.285C106.4 259.988 102.515 262.12 98.7809 260.998C95.0469 259.875 92.9725 255.948 94.0663 252.245C95.1978 248.505 99.1203 246.41 102.817 247.532Z" fill="#FF9900"/>
<path d="M96.0653 226.437C99.7615 227.559 101.911 231.487 100.78 235.19C99.6483 238.93 95.7258 241.024 92.0296 239.902C88.3334 238.78 86.2212 234.853 87.3527 231.15C88.4465 227.41 92.369 225.315 96.103 226.437" fill="#FF9900"/>
<path d="M120.242 248.617C123.598 249.627 125.522 253.18 124.504 256.584C123.485 259.988 119.902 261.858 116.545 260.848C113.151 259.838 111.265 256.247 112.283 252.881C113.302 249.477 116.885 247.607 120.242 248.617Z" fill="#FF9900"/>
<path d="M111.793 230.776C115.15 231.786 117.073 235.377 116.055 238.743C115.037 242.146 111.491 244.054 108.097 243.044C104.74 241.997 102.817 238.406 103.835 235.04C104.853 231.636 108.436 229.729 111.793 230.776Z" fill="#FF9900"/>
<path d="M136.007 245.064C139.062 245.962 140.759 249.178 139.854 252.245C138.949 255.312 135.743 257.033 132.688 256.098C129.633 255.163 127.936 251.946 128.841 248.916C129.784 245.887 132.952 244.166 136.007 245.101" fill="#FF9900"/>
<path d="M126.012 231C129.03 231.935 130.765 235.115 129.859 238.182C128.954 241.249 125.748 242.932 122.693 242.034C119.676 241.099 117.941 237.92 118.846 234.853C119.789 231.823 122.995 230.103 126.012 231Z" fill="#FF9900"/>
<path d="M149.057 239.341C151.735 240.127 153.281 243.007 152.452 245.7C151.622 248.393 148.793 249.964 146.078 249.141C143.362 248.318 141.853 245.475 142.683 242.745C143.513 240.052 146.342 238.518 149.057 239.341Z" fill="#FF9900"/>
<path d="M138.647 228.943C141.363 229.766 142.872 232.609 142.08 235.302C141.25 237.995 138.421 239.528 135.705 238.705C133.028 237.882 131.481 235.04 132.311 232.347C133.141 229.654 135.97 228.12 138.647 228.943Z" fill="#FF9900"/>
<path d="M160.41 234.292C162.786 235.002 164.106 237.508 163.389 239.865C162.673 242.221 160.184 243.568 157.807 242.857C155.431 242.146 154.111 239.64 154.828 237.284C155.544 234.89 158.034 233.581 160.41 234.254" fill="#FF9900"/>
<path d="M150.226 226.063C152.602 226.774 153.923 229.28 153.206 231.636C152.489 233.993 150 235.339 147.662 234.628C145.285 233.955 143.965 231.412 144.644 229.055C145.361 226.699 147.85 225.353 150.226 226.063Z" fill="#FF9900"/>
<path d="M170.103 229.317C172.102 229.916 173.271 232.085 172.668 234.105C172.064 236.125 169.914 237.284 167.915 236.686C165.879 236.05 164.747 233.955 165.351 231.898C165.954 229.878 168.104 228.719 170.141 229.317" fill="#FF9900"/>
<path d="M160.033 222.809C162.069 223.408 163.201 225.54 162.597 227.597C161.994 229.654 159.844 230.776 157.845 230.177C155.808 229.579 154.677 227.447 155.28 225.39C155.884 223.333 158.034 222.211 160.07 222.847" fill="#FF9900"/>
<path d="M178.363 224.38C180.022 224.904 181.003 226.699 180.475 228.345C179.947 230.028 178.212 231 176.515 230.514C174.817 229.99 173.875 228.232 174.365 226.512C174.893 224.791 176.666 223.856 178.363 224.38Z" fill="#FF9900"/>
<path d="M168.443 219.368C170.103 219.854 171.084 221.65 170.593 223.333C170.065 225.053 168.293 225.988 166.633 225.502C164.936 224.978 163.993 223.221 164.483 221.537C164.974 219.854 166.784 218.882 168.443 219.405" fill="#FF9900"/>
<path d="M185.378 219.929C186.736 220.303 187.49 221.762 187.075 223.108C186.661 224.455 185.227 225.24 183.907 224.792C182.549 224.38 181.757 222.996 182.21 221.612C182.625 220.266 184.02 219.518 185.378 219.929Z" fill="#FF9900"/>
<path d="M175.383 215.553C176.741 215.964 177.495 217.348 177.081 218.732C176.666 220.079 175.27 220.827 173.912 220.415C172.555 220.041 171.8 218.583 172.215 217.236C172.63 215.89 174.026 215.142 175.383 215.553Z" fill="#FF9900"/>
<path d="M59.8574 211.214C64.2325 212.561 66.7218 217.199 65.4017 221.575C64.0816 225.988 59.4425 228.457 55.0673 227.148C50.6922 225.839 48.2029 221.163 49.523 216.787C50.8431 212.411 55.4822 209.905 59.8574 211.214Z" fill="#FF9900"/>
<path d="M95.4618 268.366C99.4975 269.6 101.798 273.902 100.591 277.941C99.3466 282.018 95.0847 284.3 91.049 283.065C87.0133 281.831 84.7126 277.567 85.9195 273.49C87.1265 269.451 91.4262 267.132 95.4618 268.366Z" fill="#FF9900"/>
<path d="M115.075 271.508C118.808 272.63 120.883 276.52 119.789 280.26C118.695 284 114.773 286.095 111.039 284.973C107.343 283.851 105.231 279.923 106.362 276.183C107.494 272.443 111.416 270.386 115.112 271.508" fill="#FF9900"/>
<path d="M133.782 271.919C137.139 272.929 139.062 276.482 138.044 279.886C137.026 283.252 133.442 285.197 130.086 284.15C126.729 283.14 124.805 279.587 125.824 276.183C126.842 272.779 130.425 270.872 133.782 271.919Z" fill="#FF9900"/>
<path d="M150.49 267.693C153.545 268.628 155.28 271.844 154.337 274.874C153.432 277.941 150.226 279.624 147.171 278.727C144.116 277.829 142.381 274.612 143.324 271.583C144.267 268.516 147.435 266.832 150.49 267.693Z" fill="#FF9900"/>
<path d="M165.124 261.259C167.84 262.082 169.386 264.925 168.557 267.655C167.727 270.348 164.898 271.882 162.183 271.059C159.467 270.236 157.958 267.393 158.788 264.663C159.58 261.97 162.447 260.436 165.124 261.259Z" fill="#FF9900"/>
<path d="M149.887 253.255C152.565 254.078 154.111 256.921 153.319 259.614C152.489 262.344 149.661 263.878 146.945 263.055C144.267 262.232 142.721 259.389 143.55 256.696C144.38 253.966 147.209 252.432 149.887 253.255Z" fill="#FF9900"/>
<path d="M177.005 253.18C179.381 253.928 180.701 256.434 179.985 258.791C179.268 261.147 176.779 262.494 174.403 261.783C172.027 261.035 170.706 258.566 171.423 256.173C172.14 253.816 174.629 252.47 177.005 253.18Z" fill="#FF9900"/>
<path d="M162.975 247.196C165.351 247.906 166.671 250.412 165.954 252.769C165.238 255.163 162.748 256.472 160.372 255.761C157.996 255.05 156.676 252.544 157.393 250.188C158.109 247.794 160.598 246.448 162.975 247.196Z" fill="#FF9900"/>
<path d="M186.397 245.4C188.433 245.999 189.603 248.131 188.961 250.188C188.358 252.245 186.208 253.367 184.171 252.769C182.172 252.133 181.003 250.001 181.607 247.981C182.21 245.961 184.36 244.839 186.359 245.438" fill="#FF9900"/>
<path d="M173.611 241.062C175.647 241.698 176.779 243.83 176.175 245.849C175.572 247.906 173.422 249.029 171.385 248.43C169.386 247.832 168.217 245.7 168.821 243.68C169.424 241.623 171.574 240.501 173.573 241.099" fill="#FF9900"/>
<path d="M195.336 238.556C197.033 239.079 197.976 240.837 197.485 242.558C196.957 244.241 195.185 245.176 193.525 244.69C191.828 244.166 190.885 242.408 191.375 240.688C191.903 239.005 193.676 238.07 195.336 238.556Z" fill="#FF9900"/>
<path d="M182.7 235.264C184.398 235.788 185.34 237.583 184.85 239.267C184.36 240.95 182.549 241.922 180.89 241.399C179.193 240.912 178.25 239.117 178.74 237.434C179.268 235.751 181.041 234.778 182.7 235.264Z" fill="#FF9900"/>
<path d="M202.502 232.422C203.859 232.833 204.614 234.254 204.237 235.601C203.822 236.947 202.388 237.733 201.031 237.322C199.673 236.91 198.919 235.489 199.333 234.105C199.748 232.758 201.182 231.973 202.502 232.384" fill="#FF9900"/>
<path d="M190.319 229.168C191.677 229.542 192.431 231 192.016 232.347C191.601 233.693 190.206 234.479 188.81 234.03C187.453 233.619 186.698 232.197 187.113 230.851C187.528 229.504 188.961 228.719 190.319 229.168Z" fill="#FF9900"/>
<path d="M15.8044 184.172C20.8584 185.705 23.7249 191.054 22.1785 196.141C20.6698 201.19 15.3141 204.108 10.26 202.537C5.20602 201.041 2.33956 195.655 3.84822 190.605C5.35689 185.518 10.7126 182.638 15.8044 184.172Z" fill="#FF9900"/>
<path d="M19.2742 215.89C24.366 217.423 27.2324 222.772 25.6861 227.821C24.1397 232.908 18.8216 235.788 13.7676 234.255C8.71359 232.758 5.84712 227.372 7.39351 222.286C8.90217 217.199 14.2579 214.356 19.312 215.89" fill="#FF9900"/>
<path d="M22.7818 247.607C27.8358 249.141 30.7023 254.489 29.1936 259.576C27.6472 264.626 22.3292 267.543 17.2375 265.972C12.1834 264.439 9.31697 259.09 10.8634 254.003C12.4097 248.916 17.7278 246.074 22.7818 247.607Z" fill="#FF9900"/>
<path d="M208.725 227.335C209.743 227.634 210.309 228.681 210.007 229.729C209.706 230.701 208.612 231.262 207.631 230.963C206.613 230.664 206.047 229.616 206.349 228.607C206.65 227.559 207.744 226.998 208.725 227.335Z" fill="#FF9900"/>
<path d="M196.731 222.996C197.749 223.333 198.315 224.38 198.013 225.39C197.711 226.4 196.618 226.998 195.637 226.662C194.619 226.362 194.053 225.278 194.355 224.268C194.656 223.221 195.713 222.697 196.731 222.996Z" fill="#FF9900"/>
</svg>
